<svg xmlns="http://www.w3.org/2000/svg" width="1080" height="511" viewBox="0 0 1080 511" font-family="Pretendard, Apple SD Gothic Neo, Noto Sans KR, sans-serif">
<!-- 임시 기능 이미지 (디자인 확정 전 자리 표시용): AI 챗봇 기반 Customer Support -->
<defs><filter id="sh" x="-10%" y="-10%" width="120%" height="130%"><feDropShadow dx="0" dy="6" stdDeviation="10" flood-color="#000" flood-opacity=".18"/></filter></defs>
<rect x="262" y="22" width="556" height="478" rx="14" fill="#dfe8e5" opacity=".55"/>
<rect x="240" y="40" width="600" height="440" rx="12" fill="#fff" filter="url(#sh)"/>
<circle cx="282" cy="72" r="14" fill="#009788"/><text x="282" y="77" font-size="13" font-weight="700" fill="#fff" text-anchor="middle">✦</text>
<text x="304" y="70" font-size="15" font-weight="600" fill="#0a0a0c">OmicsPharm AI 상담</text><text x="304" y="86" font-size="11" fill="#009788">● 24시간 응답</text>
<line x1="240" y1="104" x2="840" y2="104" stroke="#eceff0"/>
<rect x="268" y="124" width="330" height="58" rx="12" fill="#f5f5f5"/>
<g font-size="12" fill="#262626"><text x="284" y="148">안녕하세요! 프로젝트 의뢰, 견적, 진행 상황 등</text><text x="284" y="168">궁금한 점을 편하게 물어보세요.</text></g>
<rect x="520" y="198" width="292" height="40" rx="12" fill="#009788"/><text x="536" y="223" font-size="12" fill="#fff">혈장 시료는 몇 개부터 의뢰할 수 있나요?</text>
<rect x="268" y="254" width="400" height="98" rx="12" fill="#f5f5f5"/>
<g font-size="12" fill="#262626"><text x="284" y="278">통계 비교 분석을 원하시면 그룹별 3개 이상을 권장해요.</text><text x="284" y="298">단백체 분석은 시료당 혈액 30 μL 이상이 필요합니다.</text></g>
<rect x="284" y="314" width="118" height="26" rx="13" fill="#fff" stroke="#77f9e4"/><text x="343" y="331" font-size="11" font-weight="500" fill="#00786e" text-anchor="middle">프로젝트 의뢰하기</text>
<rect x="410" y="314" width="118" height="26" rx="13" fill="#fff" stroke="#d4d4d4"/><text x="469" y="331" font-size="11" font-weight="500" fill="#525252" text-anchor="middle">상담원 연결</text>
<g font-size="11" font-weight="500" fill="#525252"><rect x="268" y="372" width="96" height="28" rx="14" fill="#fff" stroke="#e5e5e5"/><text x="316" y="390" text-anchor="middle">견적 문의</text><rect x="372" y="372" width="96" height="28" rx="14" fill="#fff" stroke="#e5e5e5"/><text x="420" y="390" text-anchor="middle">진행 상황</text><rect x="476" y="372" width="96" height="28" rx="14" fill="#fff" stroke="#e5e5e5"/><text x="524" y="390" text-anchor="middle">결과 보고서</text></g>
<rect x="268" y="416" width="544" height="44" rx="22" fill="#fafafa" stroke="#e5e5e5"/><text x="290" y="443" font-size="12" fill="#a3a3a3">메시지를 입력하세요.</text>
<circle cx="790" cy="438" r="16" fill="#009788"/><path d="M784 438h11M791 433l5 5-5 5" stroke="#fff" stroke-width="1.8" fill="none" stroke-linecap="round" stroke-linejoin="round"/>
</svg>
