<svg preserveAspectRatio="none" overflow="visible" style="display: block;" width="20" height="20" viewBox="0 0 20 20" fill="none" xmlns="http://www.w3.org/2000/svg">
<g id="checkbox_item">
<path id="Vector" fill-rule="evenodd" clip-rule="evenodd" d="M14.9648 2.00391C16.6556 2.08969 18 3.48797 18 5.2V14.8L17.9961 14.9648C17.9131 16.601 16.601 17.9131 14.9648 17.9961L14.8 18H5.2L5.03516 17.9961C3.39904 17.9131 2.08692 16.601 2.00391 14.9648L2 14.8V5.2C2 3.48797 3.34445 2.08969 5.03516 2.00391L5.2 2H14.8L14.9648 2.00391ZM5.2 3.2C4.09543 3.2 3.2 4.09543 3.2 5.2V14.8C3.2 15.9046 4.09543 16.8 5.2 16.8H14.8C15.9046 16.8 16.8 15.9046 16.8 14.8V5.2C16.8 4.09543 15.9046 3.2 14.8 3.2H5.2Z" fill="#D4D4D4"/>
</g>
</svg>
