<svg preserveAspectRatio="none" overflow="visible" style="display: block;" width="18.4418" height="15.4607" viewBox="0 0 18.4418 15.4607" fill="none" xmlns="http://www.w3.org/2000/svg">
<g id="Group">
<path id="Vector" d="M16.0726 2.57394H18.4418V0.588085L14.9074 0.596608C14.9074 0.596608 13.4412 0.366488 13.4412 2.01568V13.5856H3.60323V10.9691H0.778262V14.0799C0.778262 14.0799 0.533174 15.4607 2.19289 15.4607H16.0726V2.56541V2.57394Z" fill="black"/>
<path id="Vector_2" d="M6.3809 8.87667C8.3975 8.87667 10.0228 7.82835 10.0228 6.53286C10.0228 5.23736 8.3975 4.18052 6.3809 4.18052C4.36429 4.18052 2.72177 5.23736 2.72177 6.53286C2.72177 7.82835 4.36429 8.87667 6.3809 8.87667ZM6.3809 6.5286L0.223588 3.08958V0.980142H4.88456V0H7.82563V0.992926H12.5339V3.08532H10.1088C11.7083 3.85238 12.7532 5.10526 12.7532 6.52433C12.7532 8.86389 9.91103 10.7602 6.3809 10.7602C2.85077 10.7602 0 8.86389 0 6.52433C0 5.10526 1.04485 3.85238 2.64007 3.08532H0.223588L6.3809 6.5286Z" fill="black"/>
</g>
</svg>
