<svg preserveAspectRatio="none" overflow="visible" style="display: block;" width="20" height="20" viewBox="0 0 20 20" fill="none" xmlns="http://www.w3.org/2000/svg">
<g id="info-circle" clip-path="url(#clip0_0_14)">
<circle id="bg" cx="10" cy="10" r="9.16667" fill="white"/>
<path id="Vector" d="M10 0.833333C15.0626 0.833333 19.1667 4.93739 19.1667 10C19.1667 15.0626 15.0626 19.1667 10 19.1667C4.93739 19.1667 0.833333 15.0626 0.833333 10C0.833333 4.93739 4.93739 0.833333 10 0.833333ZM10 9.16667C9.53976 9.16667 9.16667 9.53976 9.16667 10V13.3333C9.16667 13.7936 9.53976 14.1667 10 14.1667C10.4602 14.1667 10.8333 13.7936 10.8333 13.3333V10C10.8333 9.53976 10.4602 9.16667 10 9.16667ZM10 5.83333C9.53976 5.83333 9.16667 6.20643 9.16667 6.66667C9.16667 7.1269 9.53976 7.5 10 7.5H10.0081L10.0936 7.49593C10.5138 7.45324 10.8415 7.09813 10.8415 6.66667C10.8415 6.2352 10.5138 5.88009 10.0936 5.8374L10.0081 5.83333H10Z" fill="#0B84FE"/>
</g>
<defs>
<clipPath id="clip0_0_14">
<rect width="20" height="20" fill="white"/>
</clipPath>
</defs>
</svg>
